<svg class="ob-widget-logo-svg" viewBox="0 0 27 27" fill="none" xmlns="http://www.w3.org/2000/svg" aria-hidden="true">
<path d="M26.584 12.8093C26.3147 12.1587 25.7373 12.0027 25.3467 11.9653V8C25.3467 6.52933 24.1507 5.33333 22.68 5.33333H14.68V3.48C15.0867 3.11467 15.3467 2.58933 15.3467 2C15.3467 1.46957 15.136 0.960859 14.7609 0.585787C14.3858 0.210714 13.8771 0 13.3467 0C12.8162 0 12.3075 0.210714 11.9325 0.585787C11.5574 0.960859 11.3467 1.46957 11.3467 2C11.3467 2.58933 11.6067 3.11467 12.0133 3.48V5.33333H4.01333C2.54267 5.33333 1.34667 6.52933 1.34667 8V11.996L1.23733 12.004C0.901297 12.0283 0.586902 12.1788 0.357357 12.4254C0.127811 12.6721 0.000136327 12.9964 0 13.3333V16C0 16.3536 0.140476 16.6928 0.390524 16.9428C0.640573 17.1929 0.979711 17.3333 1.33333 17.3333H1.34667V24C1.34667 25.4707 2.54267 26.6667 4.01333 26.6667H22.68C24.1507 26.6667 25.3467 25.4707 25.3467 24V17.3333C25.7003 17.3333 26.0394 17.1929 26.2895 16.9428C26.5395 16.6928 26.68 16.3536 26.68 16V13.416C26.6954 13.2091 26.6625 13.0014 26.584 12.8093ZM4.01333 24V8H22.68L22.6813 13.328L22.68 13.3333V16L22.6813 16.0067L22.6827 24H4.01333Z" fill="#FEFEFE"/>
<path d="M8.68018 16.0003C9.78475 16.0003 10.6802 14.8064 10.6802 13.3337C10.6802 11.8609 9.78475 10.667 8.68018 10.667C7.57561 10.667 6.68018 11.8609 6.68018 13.3337C6.68018 14.8064 7.57561 16.0003 8.68018 16.0003Z" fill="#FEFEFE"/>
<path d="M18.0132 16.0003C19.1178 16.0003 20.0132 14.8064 20.0132 13.3337C20.0132 11.8609 19.1178 10.667 18.0132 10.667C16.9086 10.667 16.0132 11.8609 16.0132 13.3337C16.0132 14.8064 16.9086 16.0003 18.0132 16.0003Z" fill="#FEFEFE"/>
<path d="M8.01318 18.667H18.6799V21.3337H8.01318V18.667Z" fill="#FEFEFE"/>
</svg>
